<?xml version='1.0' encoding='UTF-8' standalone='no'?>
<!-- Created with Inkscape (http://www.inkscape.org/) -->
<svg xmlns="http://www.w3.org/2000/svg" viewBox="0 0 49.729538 68.84469" id="svg4568" version="1.2" gorn="0" height="86.055473"  width="62.161922">
    <desc id="desc3757" >
        <referenceFile >svg.pcb.newESP.svg</referenceFile>
    </desc>
    <desc id="desc4572" >Fritzing footprint generated by brd2svg</desc>
    <metadata id="metadata4718" >
        <rdf:RDF xmlns:rdf="http://www.w3.org/1999/02/22-rdf-syntax-ns#">
            <cc:Work rdf:about="" xmlns:cc="http://creativecommons.org/ns#" xmlns:rdf="http://www.w3.org/1999/02/22-rdf-syntax-ns#">
                <dc:format xmlns:dc="http://purl.org/dc/elements/1.1/">image/svg+xml</dc:format>
                <dc:type xmlns:dc="http://purl.org/dc/elements/1.1/" rdf:resource="http://purl.org/dc/dcmitype/StillImage" xmlns:rdf="http://www.w3.org/1999/02/22-rdf-syntax-ns#"/>
                <dc:title xmlns:dc="http://purl.org/dc/elements/1.1/"/>
            </cc:Work>
        </rdf:RDF>
    </metadata>
    <defs id="defs4570" />
    <g transform="matrix(0.97747011,0,0,1.018313,-0.00599144,-0.14432652)" >
        <g >
            <g >
                <g >
                    <g >
                        <g >
                            <g >
                                <g >
                                    <g >
                                        <g id="silkscreen" gorn="0.4.0.0.0.0.0.0.0.0.0" >
                                            <g transform="matrix(0.80000362,0,0,0.80000362,-1.1525e-4,0)" >
                                                <g >
                                                    <g >
                                                        <g >
                                                            <g >
                                                                <g >
                                                                    <g >
                                                                        <g >
                                                                            <g >
                                                                                <g id="g3763" gorn="0.4.0.0.0.0.0.0.0.0.0.0.0.0.0.0.0.0.0.0.0" >
                                                                                    <g id="g3765" gorn="0.4.0.0.0.0.0.0.0.0.0.0.0.0.0.0.0.0.0.0.0.0" >
                                                                                        <g id="g3767" gorn="0.4.0.0.0.0.0.0.0.0.0.0.0.0.0.0.0.0.0.0.0.0.0" >
                                                                                            <path id="path3529" stroke="#ffffff" d="m 0.35433071,25.866139 0,-22.3228343 C 0.40576958,1.2187913 1.2466678,0.35432831 3.5433071,0.35432831 l 56.6929129,0 c 2.177704,0 3.188977,0.95024779 3.188977,3.18897639 l 0,22.3228343" stroke-width="0.35433072" fill="none" style="stroke-linecap:butt;stroke-linejoin:miter;stroke-miterlimit:4;stroke-dasharray:none;" gorn="0.4.0.0.0.0.0.0.0.0.0.0.0.0.0.0.0.0.0.0.0.0.0.0"  stroke-opacity="1"/>
                                                                                        </g>
                                                                                    </g>
                                                                                </g>
                                                                            </g>
                                                                        </g>
                                                                    </g>
                                                                </g>
                                                            </g>
                                                        </g>
                                                    </g>
                                                </g>
                                            </g>
                                            <path id="path4299" stroke="#ffffff" d="m 0.88538376,67.028364 c 0.40298934,0.405345 1.03049964,0.578239 1.94915954,0.578239 l 45.3545357,0 c 0.871085,0 1.508884,-0.190051 1.928911,-0.603975" stroke-width="0.28346586" fill="none" style="stroke-linecap:butt;stroke-linejoin:miter;stroke-miterlimit:4;stroke-dasharray:none;" gorn="0.4.0.0.0.0.0.0.0.0.0.1"  stroke-opacity="1"/>
                                        </g>
                                    </g>
                                </g>
                            </g>
                        </g>
                    </g>
                </g>
            </g>
        </g>
    </g>
    <g transform="translate(-0.01204684,-0.13880699)" >
        <g >
            <g >
                <g >
                    <g >
                        <g >
                            <g >
                                <g >
                                    <g >
                                        <g id="copper1" gorn="0.5.0.0.0.0.0.0.0.0.0" >
                                            <path id="connector1pin" stroke="none" d="m 0.0119324,65.197144 6.3779816,0 0,-3.401615 -6.3779816,0 z m 5.7896732,-1.700808 c 0,0.482482 -0.3920018,0.875844 -0.876004,0.875844 -0.4820026,0 -0.8740044,-0.393362 -0.8740044,-0.875844 0,-0.482482 0.3920018,-0.875844 0.8740044,-0.875844 0.4840022,0 0.876004,0.393362 0.876004,0.875844 z" fill="#f7bd13" gorn="0.5.0.0.0.0.0.0.0.0.0.0" fill-opacity="1" />
                                            <path id="connector15pin" stroke="none" d="m 0.0119324,59.527827 6.3779816,0 0,-3.401615 -6.3779816,0 z m 5.7896732,-1.700808 c 0,0.482482 -0.3920018,0.875844 -0.876004,0.875844 -0.4820026,0 -0.8740044,-0.393362 -0.8740044,-0.875844 0,-0.482482 0.3920018,-0.875844 0.8740044,-0.875844 0.4840022,0 0.876004,0.393362 0.876004,0.875844 z" fill="#f7bd13" gorn="0.5.0.0.0.0.0.0.0.0.0.1" fill-opacity="1" />
                                            <path id="connector14pin" stroke="none" d="m 0.0119324,53.85851 6.3779816,0 0,-3.401615 -6.3779816,0 z m 5.7896732,-1.700808 c 0,0.482482 -0.3920018,0.875844 -0.876004,0.875844 -0.4820026,0 -0.8740044,-0.393362 -0.8740044,-0.875844 0,-0.482482 0.3920018,-0.875844 0.8740044,-0.875844 0.4840022,0 0.876004,0.393362 0.876004,0.875844 z" fill="#f7bd13" gorn="0.5.0.0.0.0.0.0.0.0.0.2" fill-opacity="1" />
                                            <path id="connector13pin" stroke="none" d="m 0.0119324,48.189193 6.3779816,0 0,-3.401615 -6.3779816,0 z m 5.7896732,-1.700808 c 0,0.482482 -0.3920018,0.875844 -0.876004,0.875844 -0.4820026,0 -0.8740044,-0.393362 -0.8740044,-0.875844 0,-0.482482 0.3920018,-0.875844 0.8740044,-0.875844 0.4840022,0 0.876004,0.393362 0.876004,0.875844 z" fill="#f7bd13" gorn="0.5.0.0.0.0.0.0.0.0.0.3" fill-opacity="1" />
                                            <path id="connector12pin" stroke="none" d="m 0.0119324,42.519876 6.3779816,0 0,-3.401615 -6.3779816,0 z m 5.7896732,-1.700808 c 0,0.482482 -0.3920018,0.875844 -0.876004,0.875844 -0.4820026,0 -0.8740044,-0.393362 -0.8740044,-0.875844 0,-0.482482 0.3920018,-0.875844 0.8740044,-0.875844 0.4840022,0 0.876004,0.393362 0.876004,0.875844 z" fill="#f7bd13" gorn="0.5.0.0.0.0.0.0.0.0.0.4" fill-opacity="1" />
                                            <path id="connector5pin" stroke="none" d="m 0.0119324,36.850559 6.3779816,0 0,-3.401615 -6.3779816,0 z m 5.7896732,-1.700808 c 0,0.482482 -0.3920018,0.875844 -0.876004,0.875844 -0.4820026,0 -0.8740044,-0.393362 -0.8740044,-0.875844 0,-0.482482 0.3920018,-0.875844 0.8740044,-0.875844 0.4840022,0 0.876004,0.393362 0.876004,0.875844 z" fill="#f7bd13" gorn="0.5.0.0.0.0.0.0.0.0.0.5" fill-opacity="1" />
                                            <rect id="connector5terminal" stroke="none" y="35.1463" stroke-width="0" fill="none" gorn="0.5.0.0.0.0.0.0.0.0.0.6" x="3.30123" height="0.00680323"  width="0.012756"/>
                                            <path id="connector11pin" stroke="none" d="m 0.0119324,31.181242 6.3779816,0 0,-3.401615 -6.3779816,0 z m 5.7896732,-1.700808 c 0,0.482482 -0.3920018,0.875844 -0.876004,0.875844 -0.4820026,0 -0.8740044,-0.393362 -0.8740044,-0.875844 0,-0.482482 0.3920018,-0.875844 0.8740044,-0.875844 0.4840022,0 0.876004,0.393362 0.876004,0.875844 z" fill="#f7bd13" gorn="0.5.0.0.0.0.0.0.0.0.0.7" fill-opacity="1" />
                                            <path id="connector16pin" stroke="none" d="m 0.0119324,25.511925 6.3779816,0 0,-3.401615 -6.3779816,0 z m 5.7896732,-1.700808 c 0,0.482482 -0.3920018,0.875844 -0.876004,0.875844 -0.4820026,0 -0.8740044,-0.393362 -0.8740044,-0.875844 0,-0.482482 0.3920018,-0.875844 0.8740044,-0.875844 0.4840022,0 0.876004,0.393362 0.876004,0.875844 z" fill="#f7bd13" gorn="0.5.0.0.0.0.0.0.0.0.0.8" fill-opacity="1" />
                                            <path id="connector7pin" stroke="none" d="m 49.606407,25.511925 -6.377981,0 0,-3.401615 6.377981,0 z m -5.789673,-1.700808 c 0,0.482482 0.392002,0.875844 0.876004,0.875844 0.482003,0 0.874004,-0.393362 0.874004,-0.875844 0,-0.482482 -0.392001,-0.875844 -0.874004,-0.875844 -0.484002,0 -0.876004,0.393362 -0.876004,0.875844 z" fill="#f7bd13" gorn="0.5.0.0.0.0.0.0.0.0.0.9" fill-opacity="1" />
                                            <path id="connector0pin" stroke="none" d="m 49.606407,31.181242 -6.377981,0 0,-3.401615 6.377981,0 z m -5.789673,-1.700808 c 0,0.482482 0.392002,0.875844 0.876004,0.875844 0.482003,0 0.874004,-0.393362 0.874004,-0.875844 0,-0.482482 -0.392001,-0.875844 -0.874004,-0.875844 -0.484002,0 -0.876004,0.393362 -0.876004,0.875844 z" fill="#f7bd13" gorn="0.5.0.0.0.0.0.0.0.0.0.10" fill-opacity="1" />
                                            <path id="connector10pin" stroke="none" d="m 49.606407,36.850559 -6.377981,0 0,-3.401615 6.377981,0 z m -5.789673,-1.700808 c 0,0.482482 0.392002,0.875844 0.876004,0.875844 0.482003,0 0.874004,-0.393362 0.874004,-0.875844 0,-0.482482 -0.392001,-0.875844 -0.874004,-0.875844 -0.484002,0 -0.876004,0.393362 -0.876004,0.875844 z" fill="#f7bd13" gorn="0.5.0.0.0.0.0.0.0.0.0.11" fill-opacity="1" />
                                            <path id="connector9pin" stroke="none" d="m 49.606407,42.519876 -6.377981,0 0,-3.401615 6.377981,0 z m -5.789673,-1.700808 c 0,0.482482 0.392002,0.875844 0.876004,0.875844 0.482003,0 0.874004,-0.393362 0.874004,-0.875844 0,-0.482482 -0.392001,-0.875844 -0.874004,-0.875844 -0.484002,0 -0.876004,0.393362 -0.876004,0.875844 z" fill="#f7bd13" gorn="0.5.0.0.0.0.0.0.0.0.0.12" fill-opacity="1" />
                                            <path id="connector2pin" stroke="none" d="m 49.606407,48.189193 -6.377981,0 0,-3.401615 6.377981,0 z m -5.789673,-1.700808 c 0,0.482482 0.392002,0.875844 0.876004,0.875844 0.482003,0 0.874004,-0.393362 0.874004,-0.875844 0,-0.482482 -0.392001,-0.875844 -0.874004,-0.875844 -0.484002,0 -0.876004,0.393362 -0.876004,0.875844 z" fill="#f7bd13" gorn="0.5.0.0.0.0.0.0.0.0.0.13" fill-opacity="1" />
                                            <path id="connector4pin" stroke="none" d="m 49.606407,53.85851 -6.377981,0 0,-3.401615 6.377981,0 z m -5.789673,-1.700808 c 0,0.482482 0.392002,0.875844 0.876004,0.875844 0.482003,0 0.874004,-0.393362 0.874004,-0.875844 0,-0.482482 -0.392001,-0.875844 -0.874004,-0.875844 -0.484002,0 -0.876004,0.393362 -0.876004,0.875844 z" fill="#f7bd13" gorn="0.5.0.0.0.0.0.0.0.0.0.14" fill-opacity="1" />
                                            <path id="connector8pin" stroke="none" d="m 49.606407,59.527827 -6.377981,0 0,-3.401615 6.377981,0 z m -5.789673,-1.700808 c 0,0.482482 0.392002,0.875844 0.876004,0.875844 0.482003,0 0.874004,-0.393362 0.874004,-0.875844 0,-0.482482 -0.392001,-0.875844 -0.874004,-0.875844 -0.484002,0 -0.876004,0.393362 -0.876004,0.875844 z" fill="#f7bd13" gorn="0.5.0.0.0.0.0.0.0.0.0.15" fill-opacity="1" />
                                            <path id="connector6pin" stroke="none" d="m 49.606407,65.197144 -6.377981,0 0,-3.401615 6.377981,0 z m -5.789673,-1.700808 c 0,0.482482 0.392002,0.875844 0.876004,0.875844 0.482003,0 0.874004,-0.393362 0.874004,-0.875844 0,-0.482482 -0.392001,-0.875844 -0.874004,-0.875844 -0.484002,0 -0.876004,0.393362 -0.876004,0.875844 z" fill="#f7bd13" gorn="0.5.0.0.0.0.0.0.0.0.0.16" fill-opacity="1" />
                                            <path id="connector22pin" stroke="none" d="m 8.9063822,62.541066 0,6.377981 3.4016148,0 0,-6.377981 z m 1.7008078,5.789673 c -0.482482,0 -0.8758438,-0.392002 -0.8758438,-0.876004 0,-0.482003 0.3933618,-0.874005 0.8758438,-0.874005 0.482482,0 0.875844,0.392002 0.875844,0.874005 0,0.484002 -0.393362,0.876004 -0.875844,0.876004 z" fill="#f7bd13" gorn="0.5.0.0.0.0.0.0.0.0.0.17" fill-opacity="1" />
                                            <path id="connector21pin" stroke="none" d="m 14.575699,62.541066 0,6.377981 3.401615,0 0,-6.377981 z m 1.700808,5.789673 c -0.482482,0 -0.875844,-0.392002 -0.875844,-0.876004 0,-0.482003 0.393362,-0.874005 0.875844,-0.874005 0.482482,0 0.875844,0.392002 0.875844,0.874005 0,0.484002 -0.393362,0.876004 -0.875844,0.876004 z" fill="#f7bd13" gorn="0.5.0.0.0.0.0.0.0.0.0.18" fill-opacity="1" />
                                            <path id="connector20pin" stroke="none" d="m 20.245016,62.541066 0,6.377981 3.401615,0 0,-6.377981 z m 1.700808,5.789673 c -0.482482,0 -0.875844,-0.392002 -0.875844,-0.876004 0,-0.482003 0.393362,-0.874005 0.875844,-0.874005 0.482482,0 0.875844,0.392002 0.875844,0.874005 0,0.484002 -0.393362,0.876004 -0.875844,0.876004 z" fill="#f7bd13" gorn="0.5.0.0.0.0.0.0.0.0.0.19" fill-opacity="1" />
                                            <path id="connector19pin" stroke="none" d="m 25.914333,62.541066 0,6.377981 3.401615,0 0,-6.377981 z m 1.700808,5.789673 c -0.482482,0 -0.875844,-0.392002 -0.875844,-0.876004 0,-0.482003 0.393362,-0.874005 0.875844,-0.874005 0.482482,0 0.875844,0.392002 0.875844,0.874005 0,0.484002 -0.393362,0.876004 -0.875844,0.876004 z" fill="#f7bd13" gorn="0.5.0.0.0.0.0.0.0.0.0.20" fill-opacity="1" />
                                            <path id="connector18pin" stroke="none" d="m 31.583649,62.541066 0,6.377981 3.401615,0 0,-6.377981 z m 1.700808,5.789673 c -0.482482,0 -0.875844,-0.392002 -0.875844,-0.876004 0,-0.482003 0.393362,-0.874005 0.875844,-0.874005 0.482482,0 0.875844,0.392002 0.875844,0.874005 0,0.484002 -0.393362,0.876004 -0.875844,0.876004 z" fill="#f7bd13" gorn="0.5.0.0.0.0.0.0.0.0.0.21" fill-opacity="1" />
                                            <path id="connector17pin" stroke="none" d="m 37.252966,62.541066 0,6.377981 3.401615,0 0,-6.377981 z m 1.700808,5.789673 c -0.482482,0 -0.875844,-0.392002 -0.875844,-0.876004 0,-0.482003 0.393362,-0.874005 0.875844,-0.874005 0.482482,0 0.875844,0.392002 0.875844,0.874005 0,0.484002 -0.393362,0.876004 -0.875844,0.876004 z" fill="#f7bd13" gorn="0.5.0.0.0.0.0.0.0.0.0.22" fill-opacity="1" />
                                        </g>
                                    </g>
                                </g>
                            </g>
                        </g>
                    </g>
                </g>
            </g>
        </g>
    </g>
</svg>
