<?xml version='1.0' encoding='UTF-8' standalone='no'?>
<!-- Created with Inkscape (http://www.inkscape.org/) -->
<svg xmlns="http://www.w3.org/2000/svg" width="62.161922" version="1.2" gorn="0"  height="86.055473" viewBox="0 0 49.729538 68.84469" id="svg4568">
    <desc  id="desc3757">
        <referenceFile >svg.pcb.newESP.svg</referenceFile>
    </desc>
    <desc  id="desc4572">Fritzing footprint generated by brd2svg</desc>
    <metadata  id="metadata4718">
        <rdf:RDF xmlns:rdf="http://www.w3.org/1999/02/22-rdf-syntax-ns#">
            <cc:Work xmlns:rdf="http://www.w3.org/1999/02/22-rdf-syntax-ns#" xmlns:cc="http://creativecommons.org/ns#" rdf:about="">
                <dc:format xmlns:dc="http://purl.org/dc/elements/1.1/">image/svg+xml</dc:format>
                <dc:type xmlns:rdf="http://www.w3.org/1999/02/22-rdf-syntax-ns#" rdf:resource="http://purl.org/dc/dcmitype/StillImage" xmlns:dc="http://purl.org/dc/elements/1.1/"/>
                <dc:title xmlns:dc="http://purl.org/dc/elements/1.1/"/>
            </cc:Work>
        </rdf:RDF>
    </metadata>
    <defs  id="defs4570"/>
    <g  transform="matrix(0.97747011,0,0,1.018313,-0.00599144,-0.14432652)">
        <g >
            <g gorn="0.4.0.0"  id="g7">
                <g gorn="0.4.0.0.0"  id="g9">
                    <g gorn="0.4.0.0.0.0"  id="g11">
                        <g gorn="0.4.0.0.0.0.0"  id="silkscreen">
                            <g  transform="matrix(0.80000362,0,0,0.80000362,-1.1525e-4,0)">
                                <g >
                                    <g gorn="0.4.0.0.0.0.0.0.0.0"  id="g14">
                                        <g gorn="0.4.0.0.0.0.0.0.0.0.0"  id="g16">
                                            <g gorn="0.4.0.0.0.0.0.0.0.0.0.0"  id="g18">
                                                <g gorn="0.4.0.0.0.0.0.0.0.0.0.0.0"  id="g3763">
                                                    <g gorn="0.4.0.0.0.0.0.0.0.0.0.0.0.0"  id="g3765">
                                                        <g gorn="0.4.0.0.0.0.0.0.0.0.0.0.0.0.0"  id="g3767">
                                                            <path stroke-opacity="1" fill="none" gorn="0.4.0.0.0.0.0.0.0.0.0.0.0.0.0.0"  stroke="#ffffff" style="stroke-linecap:butt;stroke-linejoin:miter;stroke-miterlimit:4;stroke-dasharray:none;" id="path3529" stroke-width="0.35433072" d="m 0.35433071,25.866139 0,-22.3228343 C 0.40576958,1.2187913 1.2466678,0.35432831 3.5433071,0.35432831 l 56.6929129,0 c 2.177704,0 3.188977,0.95024779 3.188977,3.18897639 l 0,22.3228343"/>
                                                        </g>
                                                    </g>
                                                </g>
                                            </g>
                                        </g>
                                    </g>
                                </g>
                            </g>
                            <path stroke-opacity="1" fill="none" gorn="0.4.0.0.0.0.0.1"  stroke="#ffffff" style="stroke-linecap:butt;stroke-linejoin:miter;stroke-miterlimit:4;stroke-dasharray:none;" id="path4299" stroke-width="0.28346586" d="m 0.88538376,67.028364 c 0.40298934,0.405345 1.03049964,0.578239 1.94915954,0.578239 l 45.3545357,0 c 0.871085,0 1.508884,-0.190051 1.928911,-0.603975"/>
                        </g>
                    </g>
                </g>
            </g>
        </g>
    </g>
    <g gorn="0.5"  id="copper1">
        <path fill="#f7bd13" gorn="0.5.0"  stroke="none" fill-opacity="1" id="connector1pin" d="m -1.1444e-4,65.05827 6.37798164,0 0,-3.401548 -6.37798164,0 z M 5.7895588,63.357529 c 0,0.482482 -0.3920018,0.875844 -0.876004,0.875844 -0.4820026,0 -0.8740044,-0.393362 -0.8740044,-0.875844 0,-0.482482 0.3920018,-0.875844 0.8740044,-0.875844 0.4840022,0 0.876004,0.393362 0.876004,0.875844 z"/>
        <path fill="#f7bd13" gorn="0.5.1"  stroke="none" fill-opacity="1" id="connector15pin" d="m -1.1444e-4,59.38902 6.37798164,0 0,-3.401615 -6.37798164,0 z M 5.7895588,57.688212 c 0,0.482482 -0.3920018,0.875844 -0.876004,0.875844 -0.4820026,0 -0.8740044,-0.393362 -0.8740044,-0.875844 0,-0.482482 0.3920018,-0.875844 0.8740044,-0.875844 0.4840022,0 0.876004,0.393362 0.876004,0.875844 z"/>
        <path fill="#f7bd13" gorn="0.5.2"  stroke="none" fill-opacity="1" id="connector14pin" d="m -1.1444e-4,53.719703 6.37798164,0 0,-3.401615 -6.37798164,0 z M 5.7895588,52.018895 c 0,0.482482 -0.3920018,0.875844 -0.876004,0.875844 -0.4820026,0 -0.8740044,-0.393362 -0.8740044,-0.875844 0,-0.482482 0.3920018,-0.875844 0.8740044,-0.875844 0.4840022,0 0.876004,0.393362 0.876004,0.875844 z"/>
        <path fill="#f7bd13" gorn="0.5.3"  stroke="none" fill-opacity="1" id="connector13pin" d="m -1.1444e-4,48.050386 6.37798164,0 0,-3.401615 -6.37798164,0 z M 5.7895588,46.349578 c 0,0.482482 -0.3920018,0.875844 -0.876004,0.875844 -0.4820026,0 -0.8740044,-0.393362 -0.8740044,-0.875844 0,-0.482482 0.3920018,-0.875844 0.8740044,-0.875844 0.4840022,0 0.876004,0.393362 0.876004,0.875844 z"/>
        <path fill="#f7bd13" gorn="0.5.4"  stroke="none" fill-opacity="1" id="connector12pin" d="m -1.1444e-4,42.381069 6.37798164,0 0,-3.401615 -6.37798164,0 z M 5.7895588,40.680261 c 0,0.482482 -0.3920018,0.875844 -0.876004,0.875844 -0.4820026,0 -0.8740044,-0.393362 -0.8740044,-0.875844 0,-0.482482 0.3920018,-0.875844 0.8740044,-0.875844 0.4840022,0 0.876004,0.393362 0.876004,0.875844 z"/>
        <path fill="#f7bd13" gorn="0.5.5"  stroke="none" fill-opacity="1" id="connector5pin" d="m -1.1444e-4,36.711752 6.37798164,0 0,-3.401615 -6.37798164,0 z M 5.7895588,35.010944 c 0,0.482482 -0.3920018,0.875844 -0.876004,0.875844 -0.4820026,0 -0.8740044,-0.393362 -0.8740044,-0.875844 0,-0.482482 0.3920018,-0.875844 0.8740044,-0.875844 0.4840022,0 0.876004,0.393362 0.876004,0.875844 z"/>
        <path fill="#f7bd13" gorn="0.5.6"  stroke="none" fill-opacity="1" id="connector11pin" d="m -1.1444e-4,31.042435 6.37798164,0 0,-3.401615 -6.37798164,0 z M 5.7895588,29.341627 c 0,0.482482 -0.3920018,0.875844 -0.876004,0.875844 -0.4820026,0 -0.8740044,-0.393362 -0.8740044,-0.875844 0,-0.482482 0.3920018,-0.875844 0.8740044,-0.875844 0.4840022,0 0.876004,0.393362 0.876004,0.875844 z"/>
        <path fill="#f7bd13" gorn="0.5.7"  stroke="none" fill-opacity="1" id="connector16pin" d="m -1.1444e-4,25.373118 6.37798164,0 0,-3.401615 -6.37798164,0 z M 5.7895588,23.67231 c 0,0.482482 -0.3920018,0.875844 -0.876004,0.875844 -0.4820026,0 -0.8740044,-0.393362 -0.8740044,-0.875844 0,-0.482482 0.3920018,-0.875844 0.8740044,-0.875844 0.4840022,0 0.876004,0.393362 0.876004,0.875844 z"/>
        <path fill="#f7bd13" gorn="0.5.8"  stroke="none" fill-opacity="1" id="connector7pin" d="m 49.59436,25.373118 -6.377981,0 0,-3.401615 6.377981,0 z M 43.804687,23.67231 c 0,0.482482 0.392002,0.875844 0.876004,0.875844 0.482003,0 0.874004,-0.393362 0.874004,-0.875844 0,-0.482482 -0.392001,-0.875844 -0.874004,-0.875844 -0.484002,0 -0.876004,0.393362 -0.876004,0.875844 z"/>
        <path fill="#f7bd13" gorn="0.5.9"  stroke="none" fill-opacity="1" id="connector0pin" d="m 49.59436,31.042435 -6.377981,0 0,-3.401615 6.377981,0 z m -5.789673,-1.700808 c 0,0.482482 0.392002,0.875844 0.876004,0.875844 0.482003,0 0.874004,-0.393362 0.874004,-0.875844 0,-0.482482 -0.392001,-0.875844 -0.874004,-0.875844 -0.484002,0 -0.876004,0.393362 -0.876004,0.875844 z"/>
        <path fill="#f7bd13" gorn="0.5.10"  stroke="none" fill-opacity="1" id="connector10pin" d="m 49.59436,36.711752 -6.377981,0 0,-3.401615 6.377981,0 z m -5.789673,-1.700808 c 0,0.482482 0.392002,0.875844 0.876004,0.875844 0.482003,0 0.874004,-0.393362 0.874004,-0.875844 0,-0.482482 -0.392001,-0.875844 -0.874004,-0.875844 -0.484002,0 -0.876004,0.393362 -0.876004,0.875844 z"/>
        <path fill="#f7bd13" gorn="0.5.11"  stroke="none" fill-opacity="1" id="connector9pin" d="m 49.59436,42.381069 -6.377981,0 0,-3.401615 6.377981,0 z m -5.789673,-1.700808 c 0,0.482482 0.392002,0.875844 0.876004,0.875844 0.482003,0 0.874004,-0.393362 0.874004,-0.875844 0,-0.482482 -0.392001,-0.875844 -0.874004,-0.875844 -0.484002,0 -0.876004,0.393362 -0.876004,0.875844 z"/>
        <path fill="#f7bd13" gorn="0.5.12"  stroke="none" fill-opacity="1" id="connector2pin" d="m 49.59436,48.050386 -6.377981,0 0,-3.401615 6.377981,0 z m -5.789673,-1.700808 c 0,0.482482 0.392002,0.875844 0.876004,0.875844 0.482003,0 0.874004,-0.393362 0.874004,-0.875844 0,-0.482482 -0.392001,-0.875844 -0.874004,-0.875844 -0.484002,0 -0.876004,0.393362 -0.876004,0.875844 z"/>
        <path fill="#f7bd13" gorn="0.5.13"  stroke="none" fill-opacity="1" id="connector4pin" d="m 49.59436,53.719703 -6.377981,0 0,-3.401615 6.377981,0 z m -5.789673,-1.700808 c 0,0.482482 0.392002,0.875844 0.876004,0.875844 0.482003,0 0.874004,-0.393362 0.874004,-0.875844 0,-0.482482 -0.392001,-0.875844 -0.874004,-0.875844 -0.484002,0 -0.876004,0.393362 -0.876004,0.875844 z"/>
        <path fill="#f7bd13" gorn="0.5.14"  stroke="none" fill-opacity="1" id="connector8pin" d="m 49.59436,59.38902 -6.377981,0 0,-3.401615 6.377981,0 z m -5.789673,-1.700808 c 0,0.482482 0.392002,0.875844 0.876004,0.875844 0.482003,0 0.874004,-0.393362 0.874004,-0.875844 0,-0.482482 -0.392001,-0.875844 -0.874004,-0.875844 -0.484002,0 -0.876004,0.393362 -0.876004,0.875844 z"/>
        <path fill="#f7bd13" gorn="0.5.15"  stroke="none" fill-opacity="1" id="connector6pin" d="m 49.59436,65.058337 -6.377981,0 0,-3.401615 6.377981,0 z m -5.789673,-1.700808 c 0,0.482482 0.392002,0.875844 0.876004,0.875844 0.482003,0 0.874004,-0.393362 0.874004,-0.875844 0,-0.482482 -0.392001,-0.875844 -0.874004,-0.875844 -0.484002,0 -0.876004,0.393362 -0.876004,0.875844 z"/>
        <path fill="#f7bd13" gorn="0.5.16"  stroke="none" fill-opacity="1" id="connector22pin" d="m 8.8943354,65.05827 0,3.72197 3.4016146,0 0,-3.72197 z"/>
        <path fill="#f7bd13" gorn="0.5.17"  stroke="none" fill-opacity="1" id="connector21pin" d="m 14.563652,65.05827 0,3.72197 3.401615,0 0,-3.72197 z"/>
        <path fill="#f7bd13" gorn="0.5.18"  stroke="none" fill-opacity="1" id="connector20pin" d="m 20.232969,65.05827 0,3.72197 3.401615,0 0,-3.72197 z"/>
        <path fill="#f7bd13" gorn="0.5.19"  stroke="none" fill-opacity="1" id="connector19pin" d="m 25.902286,65.05827 0,3.72197 3.401615,0 0,-3.72197 z"/>
        <path fill="#f7bd13" gorn="0.5.20"  stroke="none" fill-opacity="1" id="connector18pin" d="m 31.571602,65.05827 0,3.72197 3.401615,0 0,-3.72197 z"/>
        <path fill="#f7bd13" gorn="0.5.21"  stroke="none" fill-opacity="1" id="connector17pin" d="m 37.240919,65.05827 0,3.72197 3.401615,0 0,-3.72197 z"/>
    </g>
</svg>
