<?xml version='1.0' encoding='UTF-8' standalone='no'?>
<!-- Generator: Adobe Illustrator 15.1.0, SVG Export Plug-In . SVG Version: 6.00 Build 0)  -->
<svg xmlns="http://www.w3.org/2000/svg" xml:space="preserve" version="1.1" gorn="0" xmlns:xml="http://www.w3.org/XML/1998/namespace" height="0.511986in" id="Ebene_1" x="0px" viewBox="0 0 114.48 36.863" y="0px" width="1.59in" enable-background="new 0 0 114.48 36.863" >
    <desc >
        <referenceFile >7-segment-4digit_Cathode_breadboard.svg</referenceFile>
    </desc>
    <metadata id="metadata98" >
        <rdf:RDF xmlns:rdf="http://www.w3.org/1999/02/22-rdf-syntax-ns#">
            <cc:Work rdf:about="" xmlns:rdf="http://www.w3.org/1999/02/22-rdf-syntax-ns#" xmlns:cc="http://creativecommons.org/ns#">
                <dc:format xmlns:dc="http://purl.org/dc/elements/1.1/">image/svg+xml</dc:format>
                <dc:type rdf:resource="http://purl.org/dc/dcmitype/StillImage" xmlns:rdf="http://www.w3.org/1999/02/22-rdf-syntax-ns#" xmlns:dc="http://purl.org/dc/elements/1.1/"/>
                <dc:title xmlns:dc="http://purl.org/dc/elements/1.1/"/>
            </cc:Work>
        </rdf:RDF>
    </metadata>
    <defs id="defs96" />
    <g gorn="0.3" id="breadboard" >
        <polygon points="0,0 113.365,0 114.48,1 114.48,36.864 1,36.864 0,35.557  " gorn="0.3.0" id="polygon18" fill="#323232" />
        <polygon points="9.718,3.491 22.16,3.491 22.989,4.319 21.329,6.808 10.545,6.808 8.889,4.319  " gorn="0.3.1" id="polygon20" fill="#646464" />
        <polygon points="23.819,5.148 24.648,6.808 22.989,15.934 21.329,17.591 19.672,15.934 21.329,7.636  " gorn="0.3.2" id="polygon22" fill="#EF1818" />
        <polygon points="21.329,18.42 22.16,20.078 20.501,29.204 18.842,30.863 17.183,29.204 18.842,20.911  " gorn="0.3.3" id="polygon24" fill="#EF1818" />
        <polygon points="17.183,32.522 4.74,32.522 3.91,31.69 5.569,29.204 16.354,29.204 18.012,31.692  " gorn="0.3.4" id="polygon26" fill="#646464" />
        <polygon points="3.08,30.863 2.252,29.204 3.91,20.078 5.569,18.42 7.227,20.078 5.569,28.373  " gorn="0.3.5" id="polygon28" fill="#EF1818" />
        <polygon points="5.569,17.591 4.74,15.934 6.4,6.808 8.057,5.148 9.718,6.808 8.057,15.104  " gorn="0.3.6" id="polygon30" fill="#EF1818" />
        <polyline points="6.4,17.591 8.057,15.934 18.842,15.934 20.501,17.591 18.842,19.25 8.057,19.25  " gorn="0.3.7" id="polyline32" fill="#EF1818" />
        <circle gorn="0.3.8" r="1.748" id="circle34" fill="#646464" cx="22.634" cy="30.859" />
        <polygon points="38.506,3.491 50.948,3.491 51.777,4.319 50.117,6.808 39.333,6.808 37.677,4.319  " gorn="0.3.9" id="polygon36" fill="#EF1818" />
        <polygon points="52.607,5.148 53.436,6.808 51.777,15.934 50.117,17.591 48.46,15.934 50.117,7.636  " gorn="0.3.10" id="polygon38" fill="#EF1818" />
        <polygon points="50.117,18.42 50.948,20.078 49.289,29.204 47.63,30.863 45.971,29.204 47.63,20.911  " gorn="0.3.11" id="polygon40" fill="#EF1818" />
        <polygon points="45.971,32.522 33.528,32.522 32.698,31.69 34.357,29.204 45.142,29.204 46.8,31.692  " gorn="0.3.12" id="polygon42" fill="#646464" />
        <polygon points="31.868,30.863 31.04,29.204 32.698,20.078 34.357,18.42 36.015,20.078 34.357,28.373  " gorn="0.3.13" id="polygon44" fill="#EF1818" />
        <polygon points="34.357,17.591 33.528,15.934 35.188,6.808 36.845,5.148 38.506,6.808 36.845,15.104  " gorn="0.3.14" id="polygon46" fill="#EF1818" />
        <polyline points="35.188,17.591 36.845,15.934 47.63,15.934 49.289,17.591 47.63,19.25 36.845,19.25  " gorn="0.3.15" id="polyline48" fill="#EF1818" />
        <circle gorn="0.3.16" r="1.748" id="circle50" fill="#646464" cx="51.422" cy="30.859" />
        <polygon points="67.305,3.491 79.748,3.491 80.577,4.319 78.917,6.808 68.133,6.808 66.476,4.319  " gorn="0.3.17" id="polygon58" fill="#646464" />
        <polygon points="81.406,5.148 82.236,6.808 80.577,15.934 78.917,17.591 77.26,15.934 78.917,7.636  " gorn="0.3.18" id="polygon60" fill="#646464" />
        <polygon points="78.917,18.42 79.748,20.078 78.089,29.204 76.429,30.863 74.771,29.204 76.429,20.911  " gorn="0.3.19" id="polygon62" fill="#646464" />
        <polygon points="74.771,32.522 62.328,32.522 61.498,31.69 63.157,29.204 73.941,29.204 75.599,31.692  " gorn="0.3.20" id="polygon64" fill="#EF1818" />
        <polygon points="60.668,30.863 59.84,29.204 61.498,20.078 63.157,18.42 64.815,20.078 63.157,28.373  " gorn="0.3.21" id="polygon66" fill="#EF1818" />
        <polygon points="63.157,17.591 62.328,15.934 63.988,6.808 65.645,5.148 67.305,6.808 65.645,15.104  " gorn="0.3.22" id="polygon68" fill="#EF1818" />
        <polyline points="63.988,17.591 65.645,15.934 76.429,15.934 78.089,17.591 76.429,19.25 65.645,19.25  " gorn="0.3.23" id="polyline70" fill="#646464" />
        <circle gorn="0.3.24" r="1.748" id="circle72" fill="#646464" cx="80.222" cy="30.859" />
        <polygon points="96.18,3.491 108.623,3.491 109.452,4.319 107.792,6.808 97.008,6.808 95.351,4.319  " gorn="0.3.25" id="polygon74" fill="#EF1818" />
        <polygon points="110.281,5.148 111.111,6.808 109.452,15.934 107.792,17.591 106.135,15.934 107.792,7.636  " gorn="0.3.26" id="polygon76" fill="#EF1818" />
        <polygon points="107.792,18.42 108.623,20.078 106.964,29.204 105.304,30.863 103.646,29.204 105.304,20.911  " gorn="0.3.27" id="polygon78" fill="#EF1818" />
        <polygon points="103.646,32.522 91.203,32.522 90.373,31.69 92.032,29.204 102.816,29.204 104.474,31.692  " gorn="0.3.28" id="polygon80" fill="#EF1818" />
        <polygon points="89.543,30.863 88.715,29.204 90.373,20.078 92.032,18.42 93.69,20.078 92.032,28.373  " gorn="0.3.29" id="polygon82" fill="#EF1818" />
        <polygon points="92.032,17.591 91.203,15.934 92.863,6.808 94.52,5.148 96.18,6.808 94.52,15.104  " gorn="0.3.30" id="polygon84" fill="#EF1818" />
        <polyline points="92.863,17.591 94.52,15.934 105.304,15.934 106.964,17.591 105.304,19.25 94.52,19.25  " gorn="0.3.31" id="polyline86" fill="#646464" />
        <circle gorn="0.3.32" r="1.748" id="circle88" fill="#646464" cx="109.097" cy="30.859" />
        <polygon points="113.48,35.557 0,35.557 1,36.864 114.48,36.864  " gorn="0.3.33" id="polygon90" fill="#C7C7C7" />
        <polygon points="113.365,35.557 114.48,36.864 114.48,1 113.365,0  " gorn="0.3.34" id="polygon92" fill="#AAAAAA" />
    </g>
    <g transform="matrix(0.95936487,0,0,1,7.2661041,0)" >
        <g >
            <g >
                <g >
                    <g >
                        <g >
                            <g >
                                <g >
                                    <g gorn="0.4.0.0.0.0.0.0.0.0" id="connector" >
                                        <circle stroke="#9a916c" stroke-width="0.48980001" gorn="0.4.0.0.0.0.0.0.0.0.0" r="1.97" d="m 34.010001,32.832001 c 0,1.088001 -0.881999,1.97 -1.97,1.97 -1.088001,0 -1.97,-0.881999 -1.97,-1.97 0,-1.088001 0.881999,-1.97 1.97,-1.97 1.088001,0 1.97,0.881999 1.97,1.97 z" id="connector1pin" fill="none" cx="32.040001" cy="32.832001" />
                                        <rect stroke="none" stroke-width="0" gorn="0.4.0.0.0.0.0.0.0.0.1" height="0.008859600019999995" id="connector1terminal" x="29.82067119499" fill="none" y="32.82757119999" width="0.008859600019999995" />
                                        <circle stroke="#9a916c" stroke-width="0.48980001" gorn="0.4.0.0.0.0.0.0.0.0.2" r="1.97" d="m 41.210002,32.832001 c 0,1.088001 -0.881999,1.97 -1.97,1.97 -1.088001,0 -1.97,-0.881999 -1.97,-1.97 0,-1.088001 0.881999,-1.97 1.97,-1.97 1.088001,0 1.97,0.881999 1.97,1.97 z" id="connector2pin" fill="none" cx="39.240002" cy="32.832001" />
                                        <rect stroke="none" stroke-width="0" gorn="0.4.0.0.0.0.0.0.0.0.3" height="0.008859600019999995" id="connector2terminal" x="39.12383307974012" fill="none" y="32.82757119999" width="0.008859600019999988" />
                                        <circle stroke="#9a916c" stroke-width="0.48980001" gorn="0.4.0.0.0.0.0.0.0.0.4" r="1.97" d="m 48.409999,32.832001 c 0,1.088001 -0.881999,1.97 -1.97,1.97 -1.088001,0 -1.97,-0.881999 -1.97,-1.97 0,-1.088001 0.881999,-1.97 1.97,-1.97 1.088001,0 1.97,0.881999 1.97,1.97 z" id="connector3pin" fill="none" cx="46.439999" cy="32.832001" />
                                        <circle stroke="#9a916c" stroke-width="0.48980001" gorn="0.4.0.0.0.0.0.0.0.0.5" r="1.97" d="m 55.609999,32.832001 c 0,1.088001 -0.881999,1.97 -1.97,1.97 -1.088001,0 -1.97,-0.881999 -1.97,-1.97 0,-1.088001 0.881999,-1.97 1.97,-1.97 1.088001,0 1.97,0.881999 1.97,1.97 z" id="connector4pin" fill="none" cx="53.639999" cy="32.832001" />
                                        <circle stroke="#9a916c" stroke-width="0.48980001" gorn="0.4.0.0.0.0.0.0.0.0.6" r="1.97" d="m 62.81,32.832001 c 0,1.088001 -0.881999,1.97 -1.97,1.97 -1.088001,0 -1.97,-0.881999 -1.97,-1.97 0,-1.088001 0.881999,-1.97 1.97,-1.97 1.088001,0 1.97,0.881999 1.97,1.97 z" id="connector5pin" fill="none" cx="60.84" cy="32.832001" />
                                        <circle stroke="#9a916c" stroke-width="0.48980001" gorn="0.4.0.0.0.0.0.0.0.0.7" r="1.97" d="m 70.010001,32.832001 c 0,1.088001 -0.881999,1.97 -1.97,1.97 -1.088001,0 -1.97,-0.881999 -1.97,-1.97 0,-1.088001 0.881999,-1.97 1.97,-1.97 1.088001,0 1.97,0.881999 1.97,1.97 z" id="connector6pin" fill="none" cx="68.040001" cy="32.832001" />
                                        <circle stroke="#9a916c" stroke-width="0.48980001" gorn="0.4.0.0.0.0.0.0.0.0.8" r="1.97" d="m 70.010001,4.0320001 c 0,1.0880009 -0.881999,1.97 -1.97,1.97 -1.088001,0 -1.97,-0.8819991 -1.97,-1.97 0,-1.088001 0.881999,-1.9700001 1.97,-1.9700001 1.088001,0 1.97,0.8819991 1.97,1.9700001 z" id="connector7pin" fill="none" cx="68.040001" cy="4.0320001" />
                                        <circle stroke="#9a916c" stroke-width="0.48980001" gorn="0.4.0.0.0.0.0.0.0.0.9" r="1.97" d="m 62.81,4.0320001 c 0,1.0880009 -0.881999,1.97 -1.97,1.97 -1.088001,0 -1.97,-0.8819991 -1.97,-1.97 0,-1.088001 0.881999,-1.9700001 1.97,-1.9700001 1.088001,0 1.97,0.8819991 1.97,1.9700001 z" id="connector8pin" fill="none" cx="60.84" cy="4.0320001" />
                                        <circle stroke="#9a916c" stroke-width="0.48980001" gorn="0.4.0.0.0.0.0.0.0.0.10" r="1.97" d="m 55.609999,4.0320001 c 0,1.0880009 -0.881999,1.97 -1.97,1.97 -1.088001,0 -1.97,-0.8819991 -1.97,-1.97 0,-1.088001 0.881999,-1.9700001 1.97,-1.9700001 1.088001,0 1.97,0.8819991 1.97,1.9700001 z" id="connector9pin" fill="none" cx="53.639999" cy="4.0320001" />
                                        <circle stroke="#9a916c" stroke-width="0.48980001" gorn="0.4.0.0.0.0.0.0.0.0.11" r="1.97" d="m 48.409999,4.0320001 c 0,1.0880009 -0.881999,1.97 -1.97,1.97 -1.088001,0 -1.97,-0.8819991 -1.97,-1.97 0,-1.088001 0.881999,-1.9700001 1.97,-1.9700001 1.088001,0 1.97,0.8819991 1.97,1.9700001 z" id="connector10pin" fill="none" cx="46.439999" cy="4.0320001" />
                                        <circle stroke="#9a916c" stroke-width="0.48980001" gorn="0.4.0.0.0.0.0.0.0.0.12" r="1.97" d="m 41.210002,4.0320001 c 0,1.0880009 -0.881999,1.97 -1.97,1.97 -1.088001,0 -1.97,-0.8819991 -1.97,-1.97 0,-1.088001 0.881999,-1.9700001 1.97,-1.9700001 1.088001,0 1.97,0.8819991 1.97,1.9700001 z" id="connector11pin" fill="none" cx="39.240002" cy="4.0320001" />
                                        <circle stroke="#9a916c" stroke-width="0.48980001" gorn="0.4.0.0.0.0.0.0.0.0.13" r="1.97" d="m 34.010001,4.0320001 c 0,1.0880009 -0.881999,1.97 -1.97,1.97 -1.088001,0 -1.97,-0.8819991 -1.97,-1.97 0,-1.088001 0.881999,-1.9700001 1.97,-1.9700001 1.088001,0 1.97,0.8819991 1.97,1.9700001 z" id="connector12pin" fill="none" cx="32.040001" cy="4.0320001" />
                                    </g>
                                </g>
                            </g>
                        </g>
                    </g>
                </g>
            </g>
        </g>
    </g>
</svg>
